<svg xmlns="http://www.w3.org/2000/svg" width="256" height="256" fill="none"><path fill="#C5EAEC" d="M151.809 239.665c13.714-6.242 27.639-12.285 39.994-20.716 26.343-17.955 44.706-46.169 49.868-76.609 5.161-30.44-2.943-62.708-22.004-87.639-6.009-7.846-13.103-15.046-21.593-20.43-8.627-5.471-18.463-8.965-28.3-12.074-17.503-5.52-35.705-10.022-54.131-9.326-25.507.958-50.142 12.161-68.056 29.458-17.915 17.296-29.21 40.35-33.175 64.324-4.4 26.635.212 54.687 13.776 78.362 13.564 23.676 35.394 45.15 62.858 51.828 21.455 5.21 45.454 9.798 60.763 2.822z"/><path fill="#329498" d="M56.002 142.922c21.303-16.356 54.787-18.946 84.817-18.386 17.686.326 36.33 2.263 50.283 10.686 13.954 8.424 21 25.247 10.43 36.214-13.603 14.117-58.613 16.893-70.467 17.593-86.66 5.25-88.923-35.467-75.063-46.107z"/><path fill="#FAF8F6" d="M184.477 161.799l-3.5-50.167-108.5 8.167v42h112z"/><path fill="#2E2E2E" d="M74.016 178.338c2.916 1.167 9.776 3.5 19.926 4.877 10.127 1.493 23.497 1.89 38.804.957 7.653-.467 15.797-1.144 24.197-2.287 8.376-1.167 17.126-2.66 25.666-5.32a58.193 58.193 0 0012.274-5.18c.91-.607 1.89-1.143 2.73-1.797l2.426-2.076c1.354-1.587 2.707-3.244 3.407-5.204a14.685 14.685 0 001.12-6.113c.023-2.123-.467-4.247-1.19-6.3-1.493-4.107-4.083-7.887-7.35-10.944-6.487-6.183-15.423-9.613-24.103-11.76-8.797-2.123-17.757-2.963-26.414-3.336-17.337-.677-33.483-.187-47.017 1.82-13.556 1.89-24.406 5.483-31.5 8.936-7.116 3.43-10.663 6.277-10.85 6.021-.07-.094.794-.817 2.474-2.124.42-.327.91-.7 1.423-1.097.56-.35 1.167-.746 1.82-1.166 1.307-.84 2.823-1.797 4.62-2.707 7.047-3.826 17.99-7.817 31.71-10.033 13.697-2.334 29.96-3.08 47.46-2.66 8.75.28 17.897.98 27.067 3.08 9.077 2.146 18.457 5.53 25.853 12.367 3.64 3.36 6.627 7.536 8.4 12.319.864 2.381 1.47 4.924 1.47 7.514.117 2.59-.373 5.227-1.33 7.653-.886 2.497-2.52 4.574-4.176 6.51l-2.87 2.52c-1.004.77-2.054 1.377-3.08 2.054a61.98 61.98 0 01-13.09 5.67c-8.89 2.87-17.78 4.41-26.32 5.67-8.54 1.236-16.777 1.96-24.5 2.473-15.494 1.05-29.191.723-39.714-.793-10.547-1.377-17.85-3.827-21-5.064-3.173-1.236-6.3-2.66-9.193-4.48-2.917-1.75-5.624-3.896-7.91-6.323-2.287-2.427-4.154-5.157-5.39-8.003-1.237-2.87-1.82-5.834-1.844-8.564-.046-5.507 2.054-9.823 4.13-12.133 2.077-2.38 3.827-2.987 4.037-2.683.28.373-.91 1.54-2.24 3.92-1.33 2.356-2.66 6.16-2.263 10.71.326 4.55 2.683 9.59 6.836 13.626a34.152 34.152 0 007.117 5.437c2.543 1.563 5.437 2.87 8.377 4.013z"/><path fill="#F8C279" d="M68.51 112.542s-6.72 21.711 0 23.727c6.722 2.016 13.85-8.205 18.045-5.221 4.195 2.983 13.758 7.66 18.878 3.044 5.12-4.617 16.398-2.5 20.367 0 3.97 2.499 24.54-1.633 27.044 0 2.526 1.632 31.058-.021 31.892-2.399.835-2.379 1.669-56.082-33.562-57.009-35.253-.927-82.663 37.858-82.663 37.858z"/><path fill="#2E2E2E" d="M136.385 76.932c-3.616 1.937-11.783 6.3-23.31 12.437-5.763 3.08-12.366 6.58-19.646 10.477-3.64 1.936-7.467 3.966-11.434 6.09l-.84.443-.116.07c-.164.07-.024.047.07.07 8.423.42 17.383.863 26.74 1.33 10.686.443 21.816.84 33.203 1.003 11.387.14 23.077.117 34.814-.326l2.38-.094a79.46 79.46 0 014.036-.093c.467-.163.304.373.327.653l-.023.98c0 .654-.024 1.33-.07 2.007l-.047 1.003v.467c0 .303.023.56.07.817.467 3.126.607 6.043.84 9.03.373 5.926.723 11.876 1.097 17.78.303 5.926.63 11.83.933 17.686l.187 3.85c.326.934-.677.607-1.26.654h-15.54c-11.55.023-22.867.046-33.787.07-21.817.093-42.024.21-59.29.28h-4.364v-.14c0-1.447.024-2.894.024-4.317.023-2.053.046-4.083.046-6.043.047-3.92.07-7.63.117-11.13.093-6.977.187-13.044.257-18.037.116-4.97.21-8.867.28-11.573.093-2.66.186-4.084.303-4.084.117 0 .21 1.424.303 4.084.07 2.706.164 6.603.28 11.573.07 4.993.164 11.06.28 18.037.047 3.5.094 7.21.117 11.13.023 1.96.047 3.966.07 6.043 0 .747.023 1.493.023 2.263.21.117.63.024.934.024l1.26-.024c17.266-.326 37.496-.7 59.313-1.096 10.92-.234 22.237-.28 33.764-.42 2.893-.024 5.786-.047 8.703-.094l3.92-.046h.35c.093-.024.28.046.21-.117l-.047-.747c-.35-5.856-.723-11.76-1.096-17.663-.42-5.903-.817-11.807-1.237-17.733-.257-2.94-.443-5.927-.887-8.68a9.407 9.407 0 01-.116-1.377v-.793c-.024-.14.046-.374-.024-.444l-2.543.117c-11.83.537-23.567.63-35.023.56-11.457-.093-22.634-.42-33.344-.817-5.367-.233-10.593-.443-15.703-.653-6.37-.303-12.6-.607-18.62-.91l-6.954-.35-1.726-.094c-.257.024-.07-.07.07-.14l.373-.209.747-.397c1.003-.537 2.006-1.073 2.986-1.61 3.734-2.007 7.42-3.99 11.037-5.927 3.967-2.123 7.77-4.176 11.41-6.136 7.28-3.92 13.86-7.467 19.6-10.547 11.503-6.184 19.647-10.547 23.264-12.507l5.436-2.893 1.354-.724c.84-.396 1.75-1.236 2.753-.63l1.913.56 1.494.49c3.99 1.33 7.816 3.034 11.316 5.04 7.024 3.967 12.787 9.287 16.38 14.817 3.64 5.507 5.064 10.967 5.367 14.747.303 3.803-.327 5.95-.677 5.926-.466 0-.583-2.123-1.446-5.553-.84-3.43-2.614-8.213-6.207-13.02-3.547-4.783-8.96-9.427-15.563-12.973-3.29-1.773-6.86-3.29-10.594-4.504l-1.4-.443-1.026-.28-1.401.747-5.39 3.033z"/><path fill="#2E2E2E" d="M165.902 129.293c-.49.094-1.306.257-2.38.49-1.073.21-2.403.537-4.223.77-.91.094-1.937.164-3.127.024-1.143-.117-2.636-.607-3.71-1.33-1.096-.724-1.633-1.237-2.286-1.4-.654-.304-1.494-.35-2.427-.304-1.913.14-4.223.91-6.767 1.75-1.283.42-2.636.84-4.13 1.144-1.47.303-3.173.513-4.97.163-.886-.117-1.773-.49-2.636-.887a10.489 10.489 0 01-2.124-1.586c-1.166-1.12-1.866-1.821-2.8-2.147-1.89-.77-4.596-.187-7.28.677-1.353.42-2.753.886-4.246 1.306-1.517.42-3.057.653-4.597.77-3.057.21-6.044-.07-8.82-.816-1.4-.374-2.73-.864-3.99-1.447-1.26-.56-2.474-1.447-3.337-1.937-1.61-1.027-3.593-.513-5.717-.023-8.236 1.913-13.51 3.78-13.673 3.36-.14-.35 4.9-2.917 13.113-5.46 1.027-.303 2.1-.677 3.384-.84 1.236-.21 2.846 0 4.083.653 1.26.654 2.17 1.26 3.313 1.703 1.12.467 2.31.841 3.547 1.097 2.473.56 5.157.677 7.817.397 2.683-.233 5.133-1.19 8.003-2.217 1.424-.49 2.917-.956 4.527-1.236 1.61-.234 3.453-.304 5.227.349 1.843.584 3.243 2.007 4.153 2.824.957.887 1.727 1.213 2.777 1.4 2.053.35 4.573-.513 7-1.353 2.45-.864 4.97-1.844 7.793-2.124 1.423-.093 2.94-.046 4.34.514 1.493.466 2.567 1.446 3.197 1.796.63.397 1.05.49 1.726.584.654.07 1.354.023 2.054-.07 1.376-.187 2.73-.514 3.826-.747 1.074-.233 1.89-.397 2.38-.513 7.934-1.634 16.31-2.451 16.637-.817.327 1.633-7.723 3.85-15.657 5.483z"/></svg>